# xmcd CD database file
#
# Track frame offsets:
#	150
#	27971
#	45438
#	64396
#	94552
#	126154
#	151003
#	171538
#	197382
#	220350
#	247991
#
# Disc length: 3686 seconds
#
# Revision: 0
# Processed by: cddbd v1.5.2PL0 Copyright (c) Steve Scherf et al.
# Submitted via: CDex 1.51
#
DISCID=8f0e640b
DTITLE=Eden Atwood - Waves: The Bossa Nova Session
DYEAR=2002
DGENRE=Jazz
TTITLE0=He's A Carioca
TTITLE1=O Pato
TTITLE2=Meditation
TTITLE3=Girl from Ipanema
TTITLE4=Once Upon A Summertime
TTITLE5=Don't You Know I care
TTITLE6=Waves (Caminos Cruzados)
TTITLE7=Fool On The Hill
TTITLE8=How Deep Is The Ocean
TTITLE9=Brazil
TTITLE10=It's A Quiet Thing
EXTD=YEAR: 2002
EXTT0=
EXTT1=
EXTT2=
EXTT3=
EXTT4=
EXTT5=
EXTT6=
EXTT7=
EXTT8=
EXTT9=
EXTT10=
PLAYORDER=
